<mxfile host="app.diagrams.net" modified="2022-02-10T03:48:13.903Z" agent="5.0 (Macintosh; Intel Mac OS X 10_15_7) AppleWebKit/537.36 (KHTML, like Gecko) Chrome/97.0.4692.71 Safari/537.36" etag="KxgCXR56pkPoaW1rBtRJ" version="16.5.5" type="github">
  <diagram id="Xkwwh23WElvd_-AzaLAm" name="第 1 页">
    <mxGraphModel dx="1261" dy="828" grid="0" gridSize="10" guides="1" tooltips="1" connect="1" arrows="1" fold="1" page="1" pageScale="1" pageWidth="1169" pageHeight="1654" math="0" shadow="0">
      <root>
        <mxCell id="0" />
        <mxCell id="1" parent="0" />
        <mxCell id="DF8Bpw52mn_48H-iU4MU-1" value="" style="endArrow=none;dashed=1;html=1;strokeWidth=2;" edge="1" parent="1">
          <mxGeometry width="50" height="50" relative="1" as="geometry">
            <mxPoint x="214.0499999999999" y="520" as="sourcePoint" />
            <mxPoint x="974.0499999999998" y="520" as="targetPoint" />
          </mxGeometry>
        </mxCell>
        <mxCell id="DF8Bpw52mn_48H-iU4MU-2" value="&lt;font style=&quot;font-size: 20px&quot;&gt;DataNode&lt;/font&gt;" style="rounded=1;whiteSpace=wrap;html=1;fillColor=#bac8d3;strokeColor=#23445d;" vertex="1" parent="1">
          <mxGeometry x="214.05" y="540" width="120" height="60" as="geometry" />
        </mxCell>
        <mxCell id="DF8Bpw52mn_48H-iU4MU-3" value="&lt;font style=&quot;font-size: 20px&quot;&gt;DataNode&lt;/font&gt;" style="rounded=1;whiteSpace=wrap;html=1;fillColor=#bac8d3;strokeColor=#23445d;" vertex="1" parent="1">
          <mxGeometry x="374.05" y="540" width="120" height="60" as="geometry" />
        </mxCell>
        <mxCell id="DF8Bpw52mn_48H-iU4MU-4" value="&lt;font style=&quot;font-size: 20px&quot;&gt;DataNode&lt;/font&gt;" style="rounded=1;whiteSpace=wrap;html=1;fillColor=#bac8d3;strokeColor=#23445d;" vertex="1" parent="1">
          <mxGeometry x="694.0499999999998" y="540" width="120" height="60" as="geometry" />
        </mxCell>
        <mxCell id="DF8Bpw52mn_48H-iU4MU-5" value="&lt;font style=&quot;font-size: 20px&quot;&gt;DataNode&lt;/font&gt;" style="rounded=1;whiteSpace=wrap;html=1;fillColor=#bac8d3;strokeColor=#23445d;" vertex="1" parent="1">
          <mxGeometry x="854.0499999999998" y="540" width="120" height="60" as="geometry" />
        </mxCell>
        <mxCell id="DF8Bpw52mn_48H-iU4MU-6" style="edgeStyle=orthogonalEdgeStyle;rounded=0;orthogonalLoop=1;jettySize=auto;html=1;exitX=0.25;exitY=1;exitDx=0;exitDy=0;entryX=0.5;entryY=0;entryDx=0;entryDy=0;strokeWidth=2;" edge="1" parent="1" source="DF8Bpw52mn_48H-iU4MU-8" target="DF8Bpw52mn_48H-iU4MU-2">
          <mxGeometry relative="1" as="geometry">
            <Array as="points">
              <mxPoint x="274.05" y="500" />
            </Array>
          </mxGeometry>
        </mxCell>
        <mxCell id="DF8Bpw52mn_48H-iU4MU-7" style="edgeStyle=orthogonalEdgeStyle;rounded=0;orthogonalLoop=1;jettySize=auto;html=1;exitX=0.75;exitY=1;exitDx=0;exitDy=0;entryX=0.5;entryY=0;entryDx=0;entryDy=0;strokeWidth=2;" edge="1" parent="1" source="DF8Bpw52mn_48H-iU4MU-8" target="DF8Bpw52mn_48H-iU4MU-3">
          <mxGeometry relative="1" as="geometry">
            <Array as="points">
              <mxPoint x="434.0499999999999" y="500" />
            </Array>
          </mxGeometry>
        </mxCell>
        <mxCell id="DF8Bpw52mn_48H-iU4MU-151" style="edgeStyle=orthogonalEdgeStyle;rounded=0;orthogonalLoop=1;jettySize=auto;html=1;exitX=0.75;exitY=1;exitDx=0;exitDy=0;entryX=0.5;entryY=0;entryDx=0;entryDy=0;strokeWidth=2;" edge="1" parent="1" source="DF8Bpw52mn_48H-iU4MU-8" target="DF8Bpw52mn_48H-iU4MU-11">
          <mxGeometry relative="1" as="geometry">
            <Array as="points">
              <mxPoint x="482.18" y="510" />
              <mxPoint x="594.18" y="510" />
            </Array>
          </mxGeometry>
        </mxCell>
        <mxCell id="DF8Bpw52mn_48H-iU4MU-8" value="&lt;font style=&quot;font-size: 20px&quot;&gt;HDFS Client&lt;/font&gt;" style="rounded=1;whiteSpace=wrap;html=1;fillColor=#d0cee2;strokeColor=#56517e;" vertex="1" parent="1">
          <mxGeometry x="214.05" y="440" width="358.13" height="60" as="geometry" />
        </mxCell>
        <mxCell id="DF8Bpw52mn_48H-iU4MU-11" value="&lt;font style=&quot;font-size: 20px&quot;&gt;DataNode&lt;/font&gt;" style="rounded=1;whiteSpace=wrap;html=1;fillColor=#bac8d3;strokeColor=#23445d;" vertex="1" parent="1">
          <mxGeometry x="534.0499999999998" y="540" width="120" height="60" as="geometry" />
        </mxCell>
        <mxCell id="DF8Bpw52mn_48H-iU4MU-12" style="edgeStyle=orthogonalEdgeStyle;rounded=0;orthogonalLoop=1;jettySize=auto;html=1;exitX=0.25;exitY=1;exitDx=0;exitDy=0;strokeWidth=2;" edge="1" parent="1" source="DF8Bpw52mn_48H-iU4MU-14" target="DF8Bpw52mn_48H-iU4MU-4">
          <mxGeometry relative="1" as="geometry">
            <Array as="points">
              <mxPoint x="754.0499999999998" y="500" />
            </Array>
          </mxGeometry>
        </mxCell>
        <mxCell id="DF8Bpw52mn_48H-iU4MU-13" style="edgeStyle=orthogonalEdgeStyle;rounded=0;orthogonalLoop=1;jettySize=auto;html=1;exitX=0.75;exitY=1;exitDx=0;exitDy=0;entryX=0.5;entryY=0;entryDx=0;entryDy=0;strokeWidth=2;" edge="1" parent="1" source="DF8Bpw52mn_48H-iU4MU-14" target="DF8Bpw52mn_48H-iU4MU-5">
          <mxGeometry relative="1" as="geometry">
            <Array as="points">
              <mxPoint x="914.0499999999998" y="500" />
            </Array>
          </mxGeometry>
        </mxCell>
        <mxCell id="DF8Bpw52mn_48H-iU4MU-150" style="edgeStyle=orthogonalEdgeStyle;rounded=0;orthogonalLoop=1;jettySize=auto;html=1;exitX=0.25;exitY=1;exitDx=0;exitDy=0;strokeWidth=2;" edge="1" parent="1" source="DF8Bpw52mn_48H-iU4MU-14" target="DF8Bpw52mn_48H-iU4MU-11">
          <mxGeometry relative="1" as="geometry">
            <Array as="points">
              <mxPoint x="702.18" y="510" />
              <mxPoint x="594.18" y="510" />
            </Array>
          </mxGeometry>
        </mxCell>
        <mxCell id="DF8Bpw52mn_48H-iU4MU-14" value="&lt;font style=&quot;font-size: 20px&quot;&gt;HDFS Client&lt;/font&gt;" style="rounded=1;whiteSpace=wrap;html=1;fillColor=#d0cee2;strokeColor=#56517e;" vertex="1" parent="1">
          <mxGeometry x="622.18" y="440" width="351.87" height="60" as="geometry" />
        </mxCell>
        <mxCell id="DF8Bpw52mn_48H-iU4MU-160" style="edgeStyle=orthogonalEdgeStyle;rounded=0;orthogonalLoop=1;jettySize=auto;html=1;exitX=0.5;exitY=1;exitDx=0;exitDy=0;entryX=0;entryY=0.5;entryDx=0;entryDy=0;strokeWidth=2;dashed=1;" edge="1" parent="1" source="DF8Bpw52mn_48H-iU4MU-23" target="DF8Bpw52mn_48H-iU4MU-14">
          <mxGeometry relative="1" as="geometry" />
        </mxCell>
        <mxCell id="DF8Bpw52mn_48H-iU4MU-162" style="edgeStyle=orthogonalEdgeStyle;rounded=0;orthogonalLoop=1;jettySize=auto;html=1;exitX=0;exitY=0.75;exitDx=0;exitDy=0;entryX=0.75;entryY=0;entryDx=0;entryDy=0;strokeWidth=2;" edge="1" parent="1" source="DF8Bpw52mn_48H-iU4MU-23" target="DF8Bpw52mn_48H-iU4MU-123">
          <mxGeometry relative="1" as="geometry" />
        </mxCell>
        <mxCell id="DF8Bpw52mn_48H-iU4MU-163" style="edgeStyle=orthogonalEdgeStyle;rounded=0;orthogonalLoop=1;jettySize=auto;html=1;exitX=1;exitY=0.75;exitDx=0;exitDy=0;entryX=0.25;entryY=0;entryDx=0;entryDy=0;strokeWidth=2;" edge="1" parent="1" source="DF8Bpw52mn_48H-iU4MU-23" target="DF8Bpw52mn_48H-iU4MU-97">
          <mxGeometry relative="1" as="geometry" />
        </mxCell>
        <mxCell id="DF8Bpw52mn_48H-iU4MU-167" style="edgeStyle=none;rounded=0;orthogonalLoop=1;jettySize=auto;html=1;exitX=0.5;exitY=0;exitDx=0;exitDy=0;entryX=0.96;entryY=0.7;entryDx=0;entryDy=0;entryPerimeter=0;fontSize=18;strokeWidth=2;" edge="1" parent="1" source="DF8Bpw52mn_48H-iU4MU-23" target="DF8Bpw52mn_48H-iU4MU-158">
          <mxGeometry relative="1" as="geometry" />
        </mxCell>
        <mxCell id="DF8Bpw52mn_48H-iU4MU-23" value="&lt;font style=&quot;font-size: 23px&quot;&gt;HMaster&lt;/font&gt;" style="rounded=1;whiteSpace=wrap;html=1;fillColor=#f8cecc;strokeColor=#b85450;" vertex="1" parent="1">
          <mxGeometry x="520" y="150" width="159" height="55" as="geometry" />
        </mxCell>
        <mxCell id="DF8Bpw52mn_48H-iU4MU-165" style="edgeStyle=orthogonalEdgeStyle;rounded=0;orthogonalLoop=1;jettySize=auto;html=1;exitX=0.5;exitY=1;exitDx=0;exitDy=0;entryX=0.227;entryY=0.005;entryDx=0;entryDy=0;entryPerimeter=0;fontSize=18;strokeWidth=2;" edge="1" parent="1" source="DF8Bpw52mn_48H-iU4MU-49" target="DF8Bpw52mn_48H-iU4MU-123">
          <mxGeometry relative="1" as="geometry" />
        </mxCell>
        <mxCell id="DF8Bpw52mn_48H-iU4MU-166" style="rounded=0;orthogonalLoop=1;jettySize=auto;html=1;exitX=0.75;exitY=0;exitDx=0;exitDy=0;entryX=0.13;entryY=0.77;entryDx=0;entryDy=0;entryPerimeter=0;fontSize=18;strokeWidth=2;" edge="1" parent="1" source="DF8Bpw52mn_48H-iU4MU-49" target="DF8Bpw52mn_48H-iU4MU-158">
          <mxGeometry relative="1" as="geometry" />
        </mxCell>
        <mxCell id="DF8Bpw52mn_48H-iU4MU-49" value="&lt;font style=&quot;font-size: 23px&quot;&gt;Client&lt;/font&gt;" style="rounded=1;whiteSpace=wrap;html=1;fillColor=#dae8fc;strokeColor=#6c8ebf;" vertex="1" parent="1">
          <mxGeometry x="214.36" y="150" width="167.5" height="55" as="geometry" />
        </mxCell>
        <mxCell id="DF8Bpw52mn_48H-iU4MU-97" value="" style="rounded=1;whiteSpace=wrap;html=1;fillColor=#ffe6cc;strokeColor=#d79b00;" vertex="1" parent="1">
          <mxGeometry x="619.36" y="234.38" width="364.69" height="175" as="geometry" />
        </mxCell>
        <mxCell id="DF8Bpw52mn_48H-iU4MU-177" style="edgeStyle=none;rounded=0;orthogonalLoop=1;jettySize=auto;html=1;exitX=0;exitY=0.5;exitDx=0;exitDy=0;fontSize=18;strokeWidth=2;" edge="1" parent="1" source="DF8Bpw52mn_48H-iU4MU-98">
          <mxGeometry relative="1" as="geometry">
            <mxPoint x="653" y="440" as="targetPoint" />
          </mxGeometry>
        </mxCell>
        <mxCell id="DF8Bpw52mn_48H-iU4MU-98" value="&lt;span style=&quot;font-size: 20px&quot;&gt;HLog&lt;/span&gt;" style="rounded=1;whiteSpace=wrap;html=1;rotation=-90;fillColor=#f8cecc;strokeColor=#b85450;gradientColor=#ea6b66;" vertex="1" parent="1">
          <mxGeometry x="589" y="313.13" width="127.5" height="37.5" as="geometry" />
        </mxCell>
        <mxCell id="DF8Bpw52mn_48H-iU4MU-99" value="" style="rounded=1;whiteSpace=wrap;html=1;gradientColor=#ffa500;fillColor=#ffcd28;strokeColor=#d79b00;" vertex="1" parent="1">
          <mxGeometry x="685.92" y="265.63" width="288.13" height="135" as="geometry" />
        </mxCell>
        <mxCell id="DF8Bpw52mn_48H-iU4MU-100" value="HRegion" style="text;html=1;strokeColor=none;fillColor=none;align=center;verticalAlign=middle;whiteSpace=wrap;rounded=0;" vertex="1" parent="1">
          <mxGeometry x="705.92" y="265.63" width="40" height="20" as="geometry" />
        </mxCell>
        <mxCell id="DF8Bpw52mn_48H-iU4MU-101" value="&lt;font style=&quot;font-size: 13px&quot;&gt;HRegionServer&lt;/font&gt;" style="text;html=1;strokeColor=none;fillColor=none;align=center;verticalAlign=middle;whiteSpace=wrap;rounded=0;" vertex="1" parent="1">
          <mxGeometry x="628.36" y="244.38" width="95" height="20" as="geometry" />
        </mxCell>
        <mxCell id="DF8Bpw52mn_48H-iU4MU-102" value="&lt;font style=&quot;font-size: 17px&quot;&gt;...&lt;/font&gt;" style="text;html=1;strokeColor=none;fillColor=none;align=center;verticalAlign=middle;whiteSpace=wrap;rounded=0;" vertex="1" parent="1">
          <mxGeometry x="954.0499999999998" y="331.88" width="20" height="20" as="geometry" />
        </mxCell>
        <mxCell id="DF8Bpw52mn_48H-iU4MU-180" style="edgeStyle=none;rounded=0;orthogonalLoop=1;jettySize=auto;html=1;exitX=0.5;exitY=1;exitDx=0;exitDy=0;fontSize=18;strokeWidth=2;" edge="1" parent="1" source="DF8Bpw52mn_48H-iU4MU-103">
          <mxGeometry relative="1" as="geometry">
            <mxPoint x="888" y="440" as="targetPoint" />
          </mxGeometry>
        </mxCell>
        <mxCell id="DF8Bpw52mn_48H-iU4MU-103" value="" style="rounded=1;whiteSpace=wrap;html=1;gradientColor=#d5739d;fillColor=#e6d0de;strokeColor=#996185;" vertex="1" parent="1">
          <mxGeometry x="830.22" y="286.26" width="116.26" height="108.12" as="geometry" />
        </mxCell>
        <mxCell id="DF8Bpw52mn_48H-iU4MU-104" value="" style="edgeStyle=orthogonalEdgeStyle;rounded=0;orthogonalLoop=1;jettySize=auto;html=1;" edge="1" parent="1" source="DF8Bpw52mn_48H-iU4MU-105" target="DF8Bpw52mn_48H-iU4MU-106">
          <mxGeometry relative="1" as="geometry" />
        </mxCell>
        <mxCell id="DF8Bpw52mn_48H-iU4MU-105" value="Store" style="text;html=1;strokeColor=none;fillColor=none;align=center;verticalAlign=middle;whiteSpace=wrap;rounded=0;" vertex="1" parent="1">
          <mxGeometry x="830.22" y="286.26" width="40" height="20" as="geometry" />
        </mxCell>
        <mxCell id="DF8Bpw52mn_48H-iU4MU-106" value="" style="rounded=1;whiteSpace=wrap;html=1;gradientColor=#97d077;fillColor=#d5e8d4;strokeColor=#82b366;" vertex="1" parent="1">
          <mxGeometry x="837.7199999999999" y="306.26" width="75" height="40" as="geometry" />
        </mxCell>
        <mxCell id="DF8Bpw52mn_48H-iU4MU-107" value="&lt;font&gt;&lt;span style=&quot;font-size: 11px&quot;&gt;Store&amp;nbsp;&lt;/span&gt;&lt;span style=&quot;font-size: 11px ; text-align: left&quot;&gt;File&lt;/span&gt;&lt;span style=&quot;font-size: 11px&quot;&gt;&lt;br&gt;&lt;/span&gt;&lt;/font&gt;" style="text;html=1;strokeColor=none;fillColor=none;align=center;verticalAlign=middle;whiteSpace=wrap;rounded=0;" vertex="1" parent="1">
          <mxGeometry x="847.7199999999999" y="306.26" width="45" height="11.88" as="geometry" />
        </mxCell>
        <mxCell id="DF8Bpw52mn_48H-iU4MU-108" value="HFile" style="rounded=1;whiteSpace=wrap;html=1;gradientColor=#b3b3b3;fillColor=#f5f5f5;strokeColor=#666666;" vertex="1" parent="1">
          <mxGeometry x="843.9699999999999" y="323.28999999999996" width="62.5" height="19.69" as="geometry" />
        </mxCell>
        <mxCell id="DF8Bpw52mn_48H-iU4MU-109" value="" style="rounded=1;whiteSpace=wrap;html=1;gradientColor=#97d077;fillColor=#d5e8d4;strokeColor=#82b366;" vertex="1" parent="1">
          <mxGeometry x="837.7199999999999" y="350.63" width="75" height="40" as="geometry" />
        </mxCell>
        <mxCell id="DF8Bpw52mn_48H-iU4MU-110" value="&lt;font&gt;&lt;span style=&quot;font-size: 11px&quot;&gt;Store&amp;nbsp;&lt;/span&gt;&lt;span style=&quot;font-size: 11px ; text-align: left&quot;&gt;File&lt;/span&gt;&lt;span style=&quot;font-size: 11px&quot;&gt;&lt;br&gt;&lt;/span&gt;&lt;/font&gt;" style="text;html=1;strokeColor=none;fillColor=none;align=center;verticalAlign=middle;whiteSpace=wrap;rounded=0;" vertex="1" parent="1">
          <mxGeometry x="847.7199999999999" y="350.63" width="45" height="11.88" as="geometry" />
        </mxCell>
        <mxCell id="DF8Bpw52mn_48H-iU4MU-111" value="HFile" style="rounded=1;whiteSpace=wrap;html=1;gradientColor=#b3b3b3;fillColor=#f5f5f5;strokeColor=#666666;" vertex="1" parent="1">
          <mxGeometry x="843.9699999999999" y="367.6600000000001" width="62.5" height="19.69" as="geometry" />
        </mxCell>
        <mxCell id="DF8Bpw52mn_48H-iU4MU-112" value="MemStore" style="rounded=0;whiteSpace=wrap;html=1;rotation=90;fillColor=#a0522d;fontColor=#ffffff;strokeColor=#6D1F00;" vertex="1" parent="1">
          <mxGeometry x="893.35" y="337.05" width="70" height="20" as="geometry" />
        </mxCell>
        <mxCell id="DF8Bpw52mn_48H-iU4MU-178" style="edgeStyle=none;rounded=0;orthogonalLoop=1;jettySize=auto;html=1;exitX=0.5;exitY=1;exitDx=0;exitDy=0;entryX=0.384;entryY=0.005;entryDx=0;entryDy=0;entryPerimeter=0;fontSize=18;strokeWidth=2;" edge="1" parent="1" source="DF8Bpw52mn_48H-iU4MU-113" target="DF8Bpw52mn_48H-iU4MU-14">
          <mxGeometry relative="1" as="geometry" />
        </mxCell>
        <mxCell id="DF8Bpw52mn_48H-iU4MU-113" value="" style="rounded=1;whiteSpace=wrap;html=1;gradientColor=#d5739d;fillColor=#e6d0de;strokeColor=#996185;" vertex="1" parent="1">
          <mxGeometry x="699.0000000000001" y="286.26" width="116.26" height="108.12" as="geometry" />
        </mxCell>
        <mxCell id="DF8Bpw52mn_48H-iU4MU-114" value="" style="edgeStyle=orthogonalEdgeStyle;rounded=0;orthogonalLoop=1;jettySize=auto;html=1;" edge="1" parent="1" source="DF8Bpw52mn_48H-iU4MU-115" target="DF8Bpw52mn_48H-iU4MU-116">
          <mxGeometry relative="1" as="geometry" />
        </mxCell>
        <mxCell id="DF8Bpw52mn_48H-iU4MU-115" value="Store" style="text;html=1;strokeColor=none;fillColor=none;align=center;verticalAlign=middle;whiteSpace=wrap;rounded=0;" vertex="1" parent="1">
          <mxGeometry x="699.0000000000001" y="286.26" width="40" height="20" as="geometry" />
        </mxCell>
        <mxCell id="DF8Bpw52mn_48H-iU4MU-116" value="" style="rounded=1;whiteSpace=wrap;html=1;gradientColor=#97d077;fillColor=#d5e8d4;strokeColor=#82b366;" vertex="1" parent="1">
          <mxGeometry x="706.4999999999999" y="306.26" width="75" height="40" as="geometry" />
        </mxCell>
        <mxCell id="DF8Bpw52mn_48H-iU4MU-117" value="&lt;font&gt;&lt;span style=&quot;font-size: 11px&quot;&gt;Store&amp;nbsp;&lt;/span&gt;&lt;span style=&quot;font-size: 11px ; text-align: left&quot;&gt;File&lt;/span&gt;&lt;span style=&quot;font-size: 11px&quot;&gt;&lt;br&gt;&lt;/span&gt;&lt;/font&gt;" style="text;html=1;strokeColor=none;fillColor=none;align=center;verticalAlign=middle;whiteSpace=wrap;rounded=0;" vertex="1" parent="1">
          <mxGeometry x="716.4999999999999" y="306.26" width="45" height="11.88" as="geometry" />
        </mxCell>
        <mxCell id="DF8Bpw52mn_48H-iU4MU-118" value="HFile" style="rounded=1;whiteSpace=wrap;html=1;gradientColor=#b3b3b3;fillColor=#f5f5f5;strokeColor=#666666;" vertex="1" parent="1">
          <mxGeometry x="712.7499999999999" y="323.28999999999996" width="62.5" height="19.69" as="geometry" />
        </mxCell>
        <mxCell id="DF8Bpw52mn_48H-iU4MU-119" value="" style="rounded=1;whiteSpace=wrap;html=1;gradientColor=#97d077;fillColor=#d5e8d4;strokeColor=#82b366;" vertex="1" parent="1">
          <mxGeometry x="706.4999999999999" y="350.63" width="75" height="40" as="geometry" />
        </mxCell>
        <mxCell id="DF8Bpw52mn_48H-iU4MU-120" value="&lt;font&gt;&lt;span style=&quot;font-size: 11px&quot;&gt;Store&amp;nbsp;&lt;/span&gt;&lt;span style=&quot;font-size: 11px ; text-align: left&quot;&gt;File&lt;/span&gt;&lt;span style=&quot;font-size: 11px&quot;&gt;&lt;br&gt;&lt;/span&gt;&lt;/font&gt;" style="text;html=1;strokeColor=none;fillColor=none;align=center;verticalAlign=middle;whiteSpace=wrap;rounded=0;" vertex="1" parent="1">
          <mxGeometry x="716.4999999999999" y="350.63" width="45" height="11.88" as="geometry" />
        </mxCell>
        <mxCell id="DF8Bpw52mn_48H-iU4MU-121" value="HFile" style="rounded=1;whiteSpace=wrap;html=1;gradientColor=#b3b3b3;fillColor=#f5f5f5;strokeColor=#666666;" vertex="1" parent="1">
          <mxGeometry x="712.7499999999999" y="367.6600000000001" width="62.5" height="19.69" as="geometry" />
        </mxCell>
        <mxCell id="DF8Bpw52mn_48H-iU4MU-122" value="MemStore" style="rounded=0;whiteSpace=wrap;html=1;rotation=90;fillColor=#a0522d;strokeColor=#6D1F00;fontColor=#ffffff;" vertex="1" parent="1">
          <mxGeometry x="761.43" y="336.34999999999997" width="71.4" height="20" as="geometry" />
        </mxCell>
        <mxCell id="DF8Bpw52mn_48H-iU4MU-123" value="" style="rounded=1;whiteSpace=wrap;html=1;fillColor=#ffe6cc;strokeColor=#d79b00;" vertex="1" parent="1">
          <mxGeometry x="214.36" y="234.38" width="364.69" height="175" as="geometry" />
        </mxCell>
        <mxCell id="DF8Bpw52mn_48H-iU4MU-173" style="edgeStyle=orthogonalEdgeStyle;rounded=0;orthogonalLoop=1;jettySize=auto;html=1;exitX=0;exitY=0.5;exitDx=0;exitDy=0;entryX=0.095;entryY=-0.004;entryDx=0;entryDy=0;entryPerimeter=0;fontSize=18;strokeWidth=2;" edge="1" parent="1" source="DF8Bpw52mn_48H-iU4MU-124" target="DF8Bpw52mn_48H-iU4MU-8">
          <mxGeometry relative="1" as="geometry" />
        </mxCell>
        <mxCell id="DF8Bpw52mn_48H-iU4MU-124" value="&lt;span style=&quot;font-size: 20px&quot;&gt;HLog&lt;/span&gt;" style="rounded=1;whiteSpace=wrap;html=1;rotation=-90;fillColor=#f8cecc;strokeColor=#b85450;gradientColor=#ea6b66;" vertex="1" parent="1">
          <mxGeometry x="184" y="313.13" width="127.5" height="37.5" as="geometry" />
        </mxCell>
        <mxCell id="DF8Bpw52mn_48H-iU4MU-125" value="" style="rounded=1;whiteSpace=wrap;html=1;gradientColor=#ffa500;fillColor=#ffcd28;strokeColor=#d79b00;" vertex="1" parent="1">
          <mxGeometry x="280.91999999999996" y="265.63" width="288.13" height="135" as="geometry" />
        </mxCell>
        <mxCell id="DF8Bpw52mn_48H-iU4MU-126" value="HRegion" style="text;html=1;strokeColor=none;fillColor=none;align=center;verticalAlign=middle;whiteSpace=wrap;rounded=0;" vertex="1" parent="1">
          <mxGeometry x="300.91999999999996" y="265.63" width="40" height="20" as="geometry" />
        </mxCell>
        <mxCell id="DF8Bpw52mn_48H-iU4MU-127" value="&lt;font style=&quot;font-size: 13px&quot;&gt;HRegionServer&lt;/font&gt;" style="text;html=1;strokeColor=none;fillColor=none;align=center;verticalAlign=middle;whiteSpace=wrap;rounded=0;" vertex="1" parent="1">
          <mxGeometry x="223.36" y="244.38" width="95" height="20" as="geometry" />
        </mxCell>
        <mxCell id="DF8Bpw52mn_48H-iU4MU-128" value="&lt;font style=&quot;font-size: 17px&quot;&gt;...&lt;/font&gt;" style="text;html=1;strokeColor=none;fillColor=none;align=center;verticalAlign=middle;whiteSpace=wrap;rounded=0;" vertex="1" parent="1">
          <mxGeometry x="549.0499999999998" y="331.88" width="20" height="20" as="geometry" />
        </mxCell>
        <mxCell id="DF8Bpw52mn_48H-iU4MU-176" style="edgeStyle=none;rounded=0;orthogonalLoop=1;jettySize=auto;html=1;exitX=0.5;exitY=1;exitDx=0;exitDy=0;entryX=0.75;entryY=0;entryDx=0;entryDy=0;fontSize=18;strokeWidth=2;" edge="1" parent="1" source="DF8Bpw52mn_48H-iU4MU-129" target="DF8Bpw52mn_48H-iU4MU-8">
          <mxGeometry relative="1" as="geometry" />
        </mxCell>
        <mxCell id="DF8Bpw52mn_48H-iU4MU-129" value="" style="rounded=1;whiteSpace=wrap;html=1;gradientColor=#d5739d;fillColor=#e6d0de;strokeColor=#996185;" vertex="1" parent="1">
          <mxGeometry x="425.22" y="286.26" width="116.26" height="108.12" as="geometry" />
        </mxCell>
        <mxCell id="DF8Bpw52mn_48H-iU4MU-130" value="" style="edgeStyle=orthogonalEdgeStyle;rounded=0;orthogonalLoop=1;jettySize=auto;html=1;" edge="1" parent="1" source="DF8Bpw52mn_48H-iU4MU-131" target="DF8Bpw52mn_48H-iU4MU-132">
          <mxGeometry relative="1" as="geometry" />
        </mxCell>
        <mxCell id="DF8Bpw52mn_48H-iU4MU-131" value="Store" style="text;html=1;strokeColor=none;fillColor=none;align=center;verticalAlign=middle;whiteSpace=wrap;rounded=0;" vertex="1" parent="1">
          <mxGeometry x="425.22" y="286.26" width="40" height="20" as="geometry" />
        </mxCell>
        <mxCell id="DF8Bpw52mn_48H-iU4MU-132" value="" style="rounded=1;whiteSpace=wrap;html=1;gradientColor=#97d077;fillColor=#d5e8d4;strokeColor=#82b366;" vertex="1" parent="1">
          <mxGeometry x="432.7199999999999" y="306.26" width="75" height="40" as="geometry" />
        </mxCell>
        <mxCell id="DF8Bpw52mn_48H-iU4MU-133" value="&lt;font&gt;&lt;span style=&quot;font-size: 11px&quot;&gt;Store&amp;nbsp;&lt;/span&gt;&lt;span style=&quot;font-size: 11px ; text-align: left&quot;&gt;File&lt;/span&gt;&lt;span style=&quot;font-size: 11px&quot;&gt;&lt;br&gt;&lt;/span&gt;&lt;/font&gt;" style="text;html=1;strokeColor=none;fillColor=none;align=center;verticalAlign=middle;whiteSpace=wrap;rounded=0;" vertex="1" parent="1">
          <mxGeometry x="442.7199999999999" y="306.26" width="45" height="11.88" as="geometry" />
        </mxCell>
        <mxCell id="DF8Bpw52mn_48H-iU4MU-134" value="HFile" style="rounded=1;whiteSpace=wrap;html=1;gradientColor=#b3b3b3;fillColor=#f5f5f5;strokeColor=#666666;" vertex="1" parent="1">
          <mxGeometry x="438.9699999999999" y="323.28999999999996" width="62.5" height="19.69" as="geometry" />
        </mxCell>
        <mxCell id="DF8Bpw52mn_48H-iU4MU-135" value="" style="rounded=1;whiteSpace=wrap;html=1;gradientColor=#97d077;fillColor=#d5e8d4;strokeColor=#82b366;" vertex="1" parent="1">
          <mxGeometry x="432.7199999999999" y="350.63" width="75" height="40" as="geometry" />
        </mxCell>
        <mxCell id="DF8Bpw52mn_48H-iU4MU-136" value="&lt;font&gt;&lt;span style=&quot;font-size: 11px&quot;&gt;Store&amp;nbsp;&lt;/span&gt;&lt;span style=&quot;font-size: 11px ; text-align: left&quot;&gt;File&lt;/span&gt;&lt;span style=&quot;font-size: 11px&quot;&gt;&lt;br&gt;&lt;/span&gt;&lt;/font&gt;" style="text;html=1;strokeColor=none;fillColor=none;align=center;verticalAlign=middle;whiteSpace=wrap;rounded=0;" vertex="1" parent="1">
          <mxGeometry x="442.7199999999999" y="350.63" width="45" height="11.88" as="geometry" />
        </mxCell>
        <mxCell id="DF8Bpw52mn_48H-iU4MU-137" value="HFile" style="rounded=1;whiteSpace=wrap;html=1;gradientColor=#b3b3b3;fillColor=#f5f5f5;strokeColor=#666666;" vertex="1" parent="1">
          <mxGeometry x="438.9699999999999" y="367.6600000000001" width="62.5" height="19.69" as="geometry" />
        </mxCell>
        <mxCell id="DF8Bpw52mn_48H-iU4MU-138" value="MemStore" style="rounded=0;whiteSpace=wrap;html=1;rotation=90;fillColor=#a0522d;fontColor=#ffffff;strokeColor=#6D1F00;" vertex="1" parent="1">
          <mxGeometry x="488.35" y="337.05" width="70" height="20" as="geometry" />
        </mxCell>
        <mxCell id="DF8Bpw52mn_48H-iU4MU-174" style="edgeStyle=orthogonalEdgeStyle;rounded=0;orthogonalLoop=1;jettySize=auto;html=1;exitX=0.5;exitY=1;exitDx=0;exitDy=0;entryX=0.385;entryY=0.001;entryDx=0;entryDy=0;entryPerimeter=0;fontSize=18;strokeWidth=2;" edge="1" parent="1" source="DF8Bpw52mn_48H-iU4MU-139" target="DF8Bpw52mn_48H-iU4MU-8">
          <mxGeometry relative="1" as="geometry" />
        </mxCell>
        <mxCell id="DF8Bpw52mn_48H-iU4MU-139" value="" style="rounded=1;whiteSpace=wrap;html=1;gradientColor=#d5739d;fillColor=#e6d0de;strokeColor=#996185;" vertex="1" parent="1">
          <mxGeometry x="294.0000000000001" y="286.26" width="116.26" height="108.12" as="geometry" />
        </mxCell>
        <mxCell id="DF8Bpw52mn_48H-iU4MU-140" value="" style="edgeStyle=orthogonalEdgeStyle;rounded=0;orthogonalLoop=1;jettySize=auto;html=1;" edge="1" parent="1" source="DF8Bpw52mn_48H-iU4MU-141" target="DF8Bpw52mn_48H-iU4MU-142">
          <mxGeometry relative="1" as="geometry" />
        </mxCell>
        <mxCell id="DF8Bpw52mn_48H-iU4MU-141" value="Store" style="text;html=1;strokeColor=none;fillColor=none;align=center;verticalAlign=middle;whiteSpace=wrap;rounded=0;" vertex="1" parent="1">
          <mxGeometry x="294.0000000000001" y="286.26" width="40" height="20" as="geometry" />
        </mxCell>
        <mxCell id="DF8Bpw52mn_48H-iU4MU-142" value="" style="rounded=1;whiteSpace=wrap;html=1;gradientColor=#97d077;fillColor=#d5e8d4;strokeColor=#82b366;" vertex="1" parent="1">
          <mxGeometry x="301.4999999999999" y="306.26" width="75" height="40" as="geometry" />
        </mxCell>
        <mxCell id="DF8Bpw52mn_48H-iU4MU-143" value="&lt;font&gt;&lt;span style=&quot;font-size: 11px&quot;&gt;Store&amp;nbsp;&lt;/span&gt;&lt;span style=&quot;font-size: 11px ; text-align: left&quot;&gt;File&lt;/span&gt;&lt;span style=&quot;font-size: 11px&quot;&gt;&lt;br&gt;&lt;/span&gt;&lt;/font&gt;" style="text;html=1;strokeColor=none;fillColor=none;align=center;verticalAlign=middle;whiteSpace=wrap;rounded=0;" vertex="1" parent="1">
          <mxGeometry x="311.4999999999999" y="306.26" width="45" height="11.88" as="geometry" />
        </mxCell>
        <mxCell id="DF8Bpw52mn_48H-iU4MU-144" value="HFile" style="rounded=1;whiteSpace=wrap;html=1;gradientColor=#b3b3b3;fillColor=#f5f5f5;strokeColor=#666666;" vertex="1" parent="1">
          <mxGeometry x="307.7499999999999" y="323.28999999999996" width="62.5" height="19.69" as="geometry" />
        </mxCell>
        <mxCell id="DF8Bpw52mn_48H-iU4MU-145" value="" style="rounded=1;whiteSpace=wrap;html=1;gradientColor=#97d077;fillColor=#d5e8d4;strokeColor=#82b366;" vertex="1" parent="1">
          <mxGeometry x="301.4999999999999" y="350.63" width="75" height="40" as="geometry" />
        </mxCell>
        <mxCell id="DF8Bpw52mn_48H-iU4MU-146" value="&lt;font&gt;&lt;span style=&quot;font-size: 11px&quot;&gt;Store&amp;nbsp;&lt;/span&gt;&lt;span style=&quot;font-size: 11px ; text-align: left&quot;&gt;File&lt;/span&gt;&lt;span style=&quot;font-size: 11px&quot;&gt;&lt;br&gt;&lt;/span&gt;&lt;/font&gt;" style="text;html=1;strokeColor=none;fillColor=none;align=center;verticalAlign=middle;whiteSpace=wrap;rounded=0;" vertex="1" parent="1">
          <mxGeometry x="311.4999999999999" y="350.63" width="45" height="11.88" as="geometry" />
        </mxCell>
        <mxCell id="DF8Bpw52mn_48H-iU4MU-147" value="HFile" style="rounded=1;whiteSpace=wrap;html=1;gradientColor=#b3b3b3;fillColor=#f5f5f5;strokeColor=#666666;" vertex="1" parent="1">
          <mxGeometry x="307.7499999999999" y="367.6600000000001" width="62.5" height="19.69" as="geometry" />
        </mxCell>
        <mxCell id="DF8Bpw52mn_48H-iU4MU-148" value="MemStore" style="rounded=0;whiteSpace=wrap;html=1;rotation=90;fillColor=#a0522d;strokeColor=#6D1F00;fontColor=#ffffff;" vertex="1" parent="1">
          <mxGeometry x="356.42999999999995" y="336.34999999999997" width="71.4" height="20" as="geometry" />
        </mxCell>
        <mxCell id="DF8Bpw52mn_48H-iU4MU-158" value="&lt;font style=&quot;font-size: 18px&quot;&gt;Zookeeper&lt;br&gt;管理平台&lt;/font&gt;" style="ellipse;shape=cloud;whiteSpace=wrap;html=1;fillColor=#d5e8d4;strokeColor=#82b366;" vertex="1" parent="1">
          <mxGeometry x="360.22" y="30" width="170" height="90" as="geometry" />
        </mxCell>
      </root>
    </mxGraphModel>
  </diagram>
</mxfile>
